<?xml version="1.0"?>
<!DOCTYPE svg PUBLIC "-//W3C//DTD SVG 20010904//EN"
 "http://www.w3.org/TR/2001/REC-SVG-20010904/DTD/svg10.dtd">
<svg version="1.0"  xmlns="http://www.w3.org/2000/svg"
 width="2948.000000pt" height="1360.000000pt" viewBox="0 0 2948.000000 1360.000000"
 preserveAspectRatio="xMidYMid meet">

<g transform="translate(0.000000,1360.000000) scale(0.100000,-0.100000)"
stroke="none">
<path d="M2223 12172 c-23 -2 -46 -9 -52 -16 -8 -9 -10 -752 -9 -2602 l3
-2589 12475 -3 c6861 -1 12484 0 12495 2 20 5 20 13 19 2593 0 1424 -3 2594
-8 2601 -8 13 -175 14 -1516 11 -377 -1 -703 -2 -725 -1 -95 3 -22644 7
-22682 4z m23395 -66 c3 -35 -2 -43 -65 -110 -37 -39 -120 -129 -183 -199 -77
-85 -129 -134 -157 -148 -37 -18 -283 -264 -462 -461 -24 -26 -51 -50 -62 -53
-23 -8 -59 3 -59 16 0 20 55 85 179 214 293 303 484 507 569 605 103 121 126
143 167 164 48 26 69 18 73 -28z m-654 24 c47 -18 34 -52 -50 -132 -42 -40
-105 -108 -140 -151 -98 -122 -149 -173 -197 -196 -24 -12 -77 -56 -118 -98
-52 -54 -84 -78 -108 -84 -19 -4 -38 -6 -42 -4 -19 12 47 107 129 185 116 110
288 292 380 403 76 91 90 98 146 77z m335 -1 c57 -20 34 -68 -98 -200 -53 -53
-132 -133 -176 -179 -44 -45 -105 -100 -135 -120 -31 -21 -111 -99 -178 -174
-68 -75 -133 -142 -145 -150 -13 -8 -37 -12 -59 -9 l-37 5 31 47 c17 25 120
136 229 246 109 110 215 220 236 245 101 119 277 300 291 300 5 0 23 -5 41
-11z m-625 -9 c48 -18 34 -49 -66 -152 -51 -52 -135 -143 -187 -202 -97 -110
-146 -146 -201 -146 -73 0 -46 56 93 194 61 61 152 157 201 214 92 106 104
114 160 92z m1260 -12 c9 -12 16 -32 16 -43 0 -12 -43 -65 -103 -127 -56 -59
-136 -145 -177 -189 -41 -45 -107 -106 -146 -135 -63 -46 -327 -319 -549 -566
-76 -85 -120 -116 -148 -105 -9 3 -12 16 -9 36 3 24 44 73 169 204 91 94 227
240 303 322 76 83 153 164 171 181 19 18 70 72 114 120 159 175 309 324 326
324 10 0 25 -10 33 -22z m332 -3 c10 -15 13 -32 9 -46 -7 -20 -117 -142 -231
-254 -22 -22 -63 -66 -89 -98 -28 -34 -68 -68 -94 -82 -44 -22 -93 -69 -287
-275 -412 -439 -529 -559 -552 -565 -40 -10 -48 9 -21 51 25 42 43 62 319 357
107 115 234 252 281 305 47 53 119 128 160 166 41 38 96 95 123 125 47 54 232
255 288 313 34 35 72 37 94 3z m301 3 c32 -30 29 -46 -20 -98 -23 -25 -62 -68
-86 -95 -135 -155 -258 -277 -305 -304 -37 -20 -106 -87 -232 -222 -98 -107
-251 -269 -339 -361 -88 -93 -185 -199 -216 -236 -94 -112 -163 -172 -198
-172 -35 0 -36 3 -13 46 22 41 93 121 327 368 105 111 259 278 344 371 84 94
199 215 255 271 55 55 171 176 256 268 132 143 174 182 199 185 3 1 15 -9 28
-21z m313 -13 c9 -10 10 -22 4 -34 -10 -21 -152 -186 -219 -255 -22 -23 -65
-71 -95 -108 -41 -49 -68 -71 -106 -87 -39 -17 -71 -43 -130 -109 -44 -48
-122 -132 -174 -187 -52 -55 -144 -154 -205 -220 -60 -66 -155 -167 -210 -225
-55 -58 -163 -174 -240 -257 -119 -130 -169 -173 -201 -173 -2 0 -4 12 -4 26
0 33 26 71 115 164 40 41 92 98 116 125 24 28 105 113 179 190 74 77 168 178
209 225 84 96 269 294 476 510 77 80 196 207 263 282 68 75 128 139 135 142
26 10 75 5 87 -9z m153 -136 c18 -29 -3 -70 -76 -148 -40 -42 -94 -103 -122
-136 -96 -117 -188 -205 -221 -211 -40 -7 -78 -46 -344 -349 -58 -66 -145
-162 -195 -215 -189 -200 -432 -478 -453 -517 -18 -34 -16 -36 41 -29 128 15
114 5 270 175 79 86 181 199 227 251 46 52 122 138 170 190 48 52 100 111 116
130 15 19 57 64 92 98 34 35 93 98 129 140 37 43 97 109 134 147 37 39 83 90
102 114 57 72 105 89 132 47 15 -23 15 -27 -9 -63 -28 -44 -25 -41 -216 -248
-116 -126 -155 -162 -195 -180 -34 -15 -66 -41 -100 -81 -78 -93 -341 -387
-465 -519 -61 -66 -124 -138 -140 -160 l-28 -40 20 -25 c18 -22 20 -36 16
-107 -2 -46 -3 -83 -1 -83 2 0 20 19 41 42 20 24 69 77 107 119 39 42 117 129
175 194 58 65 139 155 180 200 41 44 112 124 156 176 45 51 124 137 175 189
52 52 115 121 141 153 62 77 91 99 125 95 24 -3 28 -8 31 -41 3 -29 -4 -47
-29 -82 -18 -25 -36 -45 -39 -45 -4 0 -69 -69 -144 -154 -108 -122 -147 -159
-191 -181 -43 -22 -88 -65 -223 -214 -251 -276 -440 -486 -504 -560 -55 -63
-102 -91 -121 -72 -11 11 6 45 49 95 19 22 32 41 30 43 -2 2 -129 3 -282 2
-154 -2 -349 -3 -434 -3 -85 -1 -160 -5 -167 -9 -9 -6 -11 -88 -7 -350 3 -188
7 -353 10 -365 5 -23 7 -24 72 -17 123 12 624 9 669 -4 52 -14 73 -42 68 -90
-13 -119 -16 -143 -21 -156 -5 -13 -61 -15 -400 -15 l-394 0 0 -22 c-1 -55 -2
-785 -1 -800 1 -17 29 -18 450 -18 413 0 451 -1 470 -17 28 -23 40 -75 34
-154 -10 -125 24 -119 -629 -115 -329 3 -559 8 -574 14 -41 16 -60 46 -70 108
-6 36 -10 474 -10 1108 1 1097 0 1074 42 1129 21 27 123 37 358 35 113 -1 246
-3 295 -3 51 0 104 5 122 12 20 8 96 84 209 210 98 109 212 234 253 278 68 72
205 225 345 384 109 124 464 508 496 536 12 11 46 49 75 85 90 111 102 122
137 118 17 -2 35 -10 41 -19z m57 -1020 c0 -35 -7 -48 -53 -97 -85 -92 -210
-233 -252 -286 -26 -32 -58 -57 -90 -72 -27 -12 -62 -33 -76 -46 -30 -26 -278
-302 -354 -393 -78 -92 -243 -255 -260 -255 -17 0 -19 18 -6 52 7 19 99 128
256 303 20 22 68 76 107 120 39 44 128 141 197 215 187 199 350 377 404 443
44 52 52 57 88 57 39 0 39 0 39 -41z m-17745 -129 c40 -75 41 -144 3 -219 -41
-81 -35 -101 27 -101 13 0 52 -13 87 -29 53 -23 70 -37 95 -77 47 -74 60 -109
83 -229 12 -60 28 -123 35 -140 66 -150 78 -208 69 -352 l-6 -100 56 -55 c64
-63 71 -93 33 -149 l-22 -33 37 -34 c40 -36 98 -118 98 -138 0 -7 -12 -19 -27
-26 -39 -19 -38 -32 2 -75 20 -21 38 -48 42 -61 20 -83 -70 -383 -138 -455
-10 -11 -23 -35 -30 -54 -9 -28 -8 -38 10 -66 25 -39 53 -65 107 -101 l41 -27
6 -82 c11 -139 9 -183 -12 -208 -17 -22 -26 -23 -212 -30 -325 -12 -495 -10
-594 7 -67 12 -127 15 -235 11 -104 -4 -167 -1 -225 10 -95 18 -98 19 -85 44
15 26 52 49 113 69 28 9 54 23 58 31 4 8 12 25 18 39 6 14 21 37 33 53 32 40
36 130 8 237 -12 47 -26 103 -31 125 -5 22 -16 56 -24 75 -8 20 -16 83 -18
145 -5 123 -25 209 -105 445 -112 330 -145 431 -162 500 -6 25 -34 115 -62
201 -50 157 -50 157 -104 204 -56 48 -64 68 -44 119 11 29 64 66 95 66 20 0
40 -10 128 -64 47 -28 117 -43 127 -26 3 5 44 26 90 48 47 21 116 61 153 88
37 27 82 59 99 72 17 12 43 22 59 22 66 0 73 20 33 90 -43 75 -33 174 23 227
48 45 101 63 173 60 l65 -2 30 -55z m-4291 -91 c6 -5 11 -146 14 -322 3 -299
3 -314 -16 -337 l-20 -24 -1200 -4 c-660 -3 -1239 -1 -1286 3 -55 4 -92 12
-101 22 -13 13 -15 63 -13 341 l3 327 1185 5 c1243 5 1419 4 1434 -11z m3013
9 c8 -6 11 -356 10 -1387 l-1 -1378 -81 -7 c-44 -3 -215 -6 -381 -6 l-300 0
-26 28 c-14 15 -62 83 -105 152 -82 129 -213 330 -408 625 -62 94 -161 246
-220 340 -59 93 -122 188 -140 210 -18 22 -43 59 -55 83 -12 23 -25 42 -29 42
-14 0 -21 -317 -21 -893 0 -312 -2 -572 -5 -578 -4 -5 -154 -9 -374 -9 -293 0
-371 3 -379 13 -8 10 -12 410 -12 1388 l-1 1374 386 0 387 0 26 -31 c15 -17
41 -55 57 -83 17 -29 64 -105 106 -169 42 -64 124 -189 181 -277 57 -88 144
-223 193 -300 48 -77 136 -212 194 -300 58 -88 108 -165 111 -170 12 -25 83
-126 92 -131 6 -4 14 0 19 7 5 8 9 326 9 724 0 391 0 715 0 722 0 6 10 13 23
15 47 7 733 3 744 -4z m19031 -109 c3 -32 -4 -44 -50 -95 -30 -33 -80 -90
-112 -129 -100 -120 -197 -214 -240 -234 -50 -22 -62 -34 -261 -257 -211 -236
-236 -261 -268 -270 -74 -18 -46 31 128 224 86 95 216 234 288 310 126 131
363 398 395 443 17 25 69 50 97 46 15 -1 21 -11 23 -38z m-3464 -243 c204 -40
395 -126 450 -204 26 -36 30 -53 34 -126 2 -47 2 -96 -2 -110 -14 -56 -75 -52
-167 11 -70 48 -151 84 -279 123 -99 31 -114 33 -255 32 -172 0 -261 -18 -380
-76 -151 -74 -301 -244 -359 -404 -64 -179 -70 -220 -70 -457 -1 -280 13 -350
106 -527 93 -176 169 -253 335 -337 124 -62 344 -96 443 -68 30 8 76 17 101
20 25 4 82 21 127 38 l82 32 0 342 c0 303 -2 344 -16 349 -9 3 -132 6 -274 6
-215 0 -260 2 -270 15 -17 21 -19 193 -2 223 l13 22 397 0 c341 0 401 -2 419
-15 48 -34 52 -82 53 -572 0 -276 -4 -470 -10 -493 -6 -21 -20 -50 -32 -65
-22 -28 -188 -115 -221 -115 -10 0 -34 -8 -55 -18 -20 -11 -100 -29 -177 -42
-121 -20 -162 -22 -311 -17 -172 5 -172 5 -308 52 -76 25 -154 55 -174 67 -20
12 -55 31 -76 42 -21 12 -83 64 -136 116 -141 137 -237 291 -289 465 -22 72
-48 185 -56 240 -10 70 -12 307 -4 391 9 87 61 319 84 369 7 17 24 55 38 86
32 74 155 254 203 301 247 233 511 334 844 323 63 -2 150 -11 194 -19z
m-12114 0 c108 -18 181 -44 285 -101 139 -76 161 -107 172 -250 4 -52 1 -80
-11 -109 -15 -37 -18 -38 -54 -34 -22 3 -64 24 -102 51 -84 58 -186 108 -280
138 -100 32 -294 34 -380 5 -113 -38 -143 -58 -240 -155 -115 -114 -148 -169
-188 -316 -49 -177 -53 -203 -62 -355 -18 -279 40 -570 146 -737 70 -111 173
-197 279 -233 74 -25 260 -54 304 -46 161 27 209 39 270 69 64 31 180 102 191
117 12 16 71 40 99 40 28 0 30 -3 37 -45 9 -66 -11 -223 -33 -248 -42 -46
-210 -138 -323 -177 -105 -36 -312 -55 -450 -42 -255 24 -496 154 -624 336
-124 177 -198 401 -225 680 -15 148 -14 227 5 386 26 231 90 440 177 585 56
93 210 247 320 319 99 66 210 113 295 125 93 14 301 12 392 -3z m1789 -22 c21
-27 40 -73 99 -239 70 -200 92 -266 92 -276 0 -6 7 -25 15 -43 15 -32 77 -209
285 -816 65 -190 145 -424 179 -520 152 -435 152 -433 122 -472 -16 -20 -33
-27 -77 -33 -127 -15 -231 18 -245 80 -4 17 -19 62 -32 100 -20 56 -97 298
-135 425 l-7 25 -475 0 -475 0 -27 -80 c-16 -44 -37 -109 -47 -145 -11 -36
-33 -105 -50 -155 -17 -49 -31 -97 -31 -105 0 -8 -11 -38 -24 -66 -21 -45 -28
-52 -76 -67 -29 -9 -67 -17 -85 -17 -52 0 -138 19 -147 33 -20 31 1 146 41
232 6 11 42 115 80 230 82 244 223 654 276 805 79 223 187 538 205 595 29 97
125 370 154 440 19 46 43 74 71 86 11 4 82 8 157 8 135 1 137 1 157 -25z
m5116 4 c14 -20 15 -75 10 -488 -4 -307 -3 -470 4 -480 9 -13 77 -15 508 -15
l498 0 5 480 c3 264 9 487 13 497 7 12 29 18 93 23 106 9 174 2 190 -19 6 -9
14 -47 17 -84 4 -37 5 -564 3 -1171 -3 -911 -6 -1105 -18 -1112 -27 -18 -85
-29 -155 -29 -82 0 -116 12 -132 47 -8 16 -11 185 -11 549 l0 524 -507 -2
-508 -3 -1 -526 c-1 -371 -5 -532 -13 -547 -15 -28 -74 -43 -167 -44 -93 -1
-130 13 -138 54 -11 56 -5 2238 6 2306 l11 62 138 0 c132 0 139 -1 154 -22z
m2859 3 c21 -17 60 -105 91 -201 15 -47 39 -119 55 -160 16 -41 36 -102 46
-135 9 -33 25 -78 34 -100 10 -22 34 -89 55 -150 260 -770 346 -1023 355
-1040 24 -50 180 -523 180 -548 0 -33 -20 -56 -58 -67 -88 -24 -224 -1 -260
45 -14 17 -152 418 -198 573 -2 7 -20 12 -41 12 -1006 5 -913 12 -931 -70 -6
-25 -21 -76 -35 -115 -13 -38 -43 -129 -65 -202 -73 -234 -81 -243 -221 -244
-78 -1 -98 2 -120 18 -50 38 -52 29 140 588 26 77 58 165 69 195 12 30 68 195
125 365 93 276 139 408 206 595 11 30 25 71 30 90 24 79 170 488 186 520 12
24 27 37 48 42 47 11 293 2 309 -11z m-6019 0 c22 -5 74 -19 115 -31 41 -11
93 -26 115 -32 45 -13 105 -51 182 -116 38 -32 63 -66 95 -128 32 -62 50 -86
69 -93 26 -9 27 -12 34 -116 5 -74 4 -110 -4 -118 -15 -15 -14 -54 2 -60 9 -3
9 -11 0 -38 -7 -19 -15 -54 -19 -79 -4 -25 -16 -55 -26 -67 -12 -12 -23 -42
-26 -68 -4 -38 -9 -48 -29 -56 -14 -5 -60 -41 -102 -79 -42 -39 -104 -84 -138
-101 -91 -45 -92 -50 -34 -93 27 -20 54 -36 60 -36 5 0 26 -15 46 -32 25 -24
35 -41 35 -63 0 -37 25 -75 49 -75 19 0 31 -19 31 -47 0 -8 9 -26 20 -40 11
-14 20 -40 20 -58 0 -18 9 -44 20 -58 11 -14 20 -40 20 -60 0 -20 8 -44 20
-57 11 -13 20 -32 20 -42 0 -11 10 -28 22 -37 16 -14 22 -31 24 -75 4 -79 21
-126 44 -126 25 0 42 -33 34 -65 -4 -18 1 -33 20 -56 23 -27 26 -39 26 -104 0
-105 0 -105 -173 -105 l-142 0 -30 38 c-16 20 -29 43 -27 50 2 7 -8 26 -21 41
-15 19 -24 43 -25 69 -3 62 -17 92 -46 92 -24 0 -25 4 -32 80 -4 48 -12 84
-20 91 -8 6 -14 26 -14 43 0 46 -26 137 -50 178 -14 24 -30 38 -51 42 -16 3
-32 14 -35 23 -3 10 -13 31 -21 47 -15 27 -15 30 6 45 22 17 22 17 3 34 -11
10 -23 17 -28 16 -32 -6 -44 5 -61 51 -10 28 -25 53 -34 55 -9 3 -30 19 -47
34 -36 35 -95 46 -250 46 l-103 0 1 -502 1 -502 -32 -35 -31 -36 -127 0 -126
0 -28 35 -27 34 0 1122 c0 989 1 1124 15 1139 8 9 15 28 15 41 0 14 5 30 12
37 14 14 717 17 783 3z m2517 -14 c13 -21 21 -115 14 -171 -13 -97 11 -91
-355 -92 -194 0 -325 -4 -331 -10 -6 -6 -11 -393 -12 -1048 -3 -954 -4 -1039
-20 -1050 -36 -26 -253 -18 -288 12 -3 2 -7 472 -10 1045 l-5 1042 -321 3
-321 2 -24 26 c-21 23 -24 34 -22 97 2 90 10 133 27 149 18 18 1656 14 1668
-5z m9320 -22 c17 -37 -5 -76 -91 -171 -42 -45 -121 -130 -175 -189 -70 -75
-113 -113 -143 -126 -48 -20 -91 -63 -228 -222 -61 -71 -102 -110 -128 -121
-47 -20 -47 -20 -47 6 0 19 38 79 66 103 6 6 46 51 89 100 43 50 126 140 184
200 145 151 311 333 344 376 26 35 77 68 105 69 7 0 17 -11 24 -25z m12 -351
c9 -8 16 -19 16 -24 0 -28 -29 -73 -83 -130 -35 -36 -92 -101 -127 -144 -113
-138 -144 -169 -190 -188 -29 -13 -70 -46 -115 -94 -65 -69 -74 -75 -122 -83
-29 -4 -53 -4 -53 0 0 12 113 142 195 225 99 100 311 328 369 397 51 60 80 71
110 41z m-22055 -259 c3 -4 6 -155 6 -336 0 -282 -2 -331 -15 -339 -9 -6 -507
-9 -1315 -7 l-1300 2 -1 25 c-3 61 -7 407 -5 527 l1 133 1243 3 c1268 3 1375
3 1386 -8z m22061 -69 c0 -42 -20 -79 -66 -121 -6 -5 -72 -81 -147 -167 -76
-87 -147 -164 -159 -173 -26 -18 -109 -20 -126 -3 -15 15 10 50 118 163 48 50
131 140 184 200 89 100 145 144 184 145 8 0 12 -15 12 -44z m-22085 -1001 l30
-5 4 -323 c3 -298 2 -324 -14 -337 -16 -13 -192 -15 -1312 -15 -1139 0 -1295
2 -1303 15 -9 14 -15 662 -6 671 6 6 2565 0 2601 -6z"/>
<path d="M8470 10081 c0 -24 108 -393 130 -446 5 -11 14 -44 20 -73 14 -62 23
-70 44 -40 20 28 20 76 1 220 -8 62 -16 144 -19 182 -5 88 -23 112 -109 147
-59 24 -67 25 -67 10z"/>
<path d="M9602 9508 c-17 -22 -24 -57 -17 -88 5 -23 13 -31 39 -35 18 -4 45
-5 59 -3 l27 3 -29 61 c-16 34 -36 64 -46 67 -22 9 -21 9 -33 -5z"/>
<path d="M8820 8977 c0 -6 6 -24 14 -39 8 -15 17 -40 21 -57 3 -16 15 -39 26
-52 10 -12 19 -28 19 -36 0 -10 9 -13 28 -11 21 2 28 9 30 29 2 21 -12 43 -67
103 -39 42 -71 70 -71 63z"/>
<path d="M8980 8674 c0 -23 17 -71 46 -130 48 -98 48 -92 32 -199 -2 -12 3
-20 12 -20 10 0 21 22 32 65 17 61 17 68 2 110 -9 25 -20 50 -24 55 -5 6 -13
36 -19 69 -13 68 -24 86 -57 86 -21 0 -24 -5 -24 -36z"/>
<path d="M13094 9963 c-8 -40 -151 -485 -245 -765 -82 -245 -104 -338 -78
-338 273 -3 698 0 712 5 9 4 17 12 17 17 0 5 -26 87 -57 181 -31 95 -58 177
-59 182 -2 6 -48 143 -102 305 -55 162 -106 315 -112 340 -13 47 -45 100 -60
100 -6 0 -12 -12 -16 -27z"/>
<path d="M21073 9933 c-11 -27 -32 -88 -47 -138 -33 -108 -48 -155 -113 -350
-112 -334 -173 -532 -173 -558 l0 -27 328 0 c180 0 344 -3 365 -6 l37 -7 0 44
c-1 24 -8 62 -16 84 -8 22 -20 56 -25 75 -19 66 -99 305 -145 435 -25 72 -52
151 -59 176 -28 98 -96 293 -106 306 -18 21 -25 16 -46 -34z"/>
<path d="M14822 10090 l-22 -9 2 -378 3 -378 225 -1 225 -1 73 38 c109 56 135
93 151 215 14 108 15 160 2 223 -8 39 -8 58 0 67 13 16 -9 50 -73 110 -67 63
-105 81 -208 98 -120 19 -348 29 -378 16z"/>
<path d="M4972 6069 c-17 -72 -15 -90 13 -132 63 -92 134 -535 111 -691 -10
-64 -48 -105 -138 -147 l-73 -34 -685 0 c-377 0 -698 4 -713 8 -57 16 -84 142
-92 437 -6 207 -15 314 -35 410 -5 25 -12 57 -15 72 -8 41 -28 26 -68 -50
l-35 -67 29 -45 c35 -56 45 -106 59 -295 29 -419 50 -536 106 -592 l23 -23
1159 0 c1023 0 1161 2 1172 15 10 12 11 51 4 178 -11 185 -17 200 -101 256
-40 27 -55 31 -112 31 -108 0 -254 -50 -331 -115 -22 -19 -47 -32 -54 -29 -9
3 -17 -3 -21 -16 -15 -46 -20 -1 -21 173 -1 178 -8 245 -41 359 -13 47 -14 62
-3 87 7 17 16 31 20 31 10 0 30 88 30 128 0 21 -8 32 -32 44 -41 22 -127 58
-137 58 -4 0 -13 -23 -19 -51z m625 -840 c91 -34 100 -114 16 -150 -39 -17
-71 -19 -263 -19 -207 0 -280 5 -280 19 1 21 224 134 295 148 69 14 198 15
232 2z"/>
<path d="M18219 6094 c-5 -15 -12 -53 -16 -84 -5 -52 -4 -58 15 -64 19 -6 52
-60 52 -86 0 -6 9 -50 19 -98 31 -138 51 -298 54 -419 2 -109 1 -112 -28 -155
-57 -82 -234 -146 -326 -119 l-39 12 6 58 c10 95 -34 290 -75 334 -17 17 -18
17 -37 -4 -29 -32 -27 -148 3 -181 44 -46 70 -209 36 -222 -22 -9 -342 -5
-367 4 -17 6 -20 19 -23 121 -3 119 -19 192 -53 247 -26 42 -52 41 -73 -3 -27
-57 -22 -93 23 -159 26 -38 40 -70 40 -91 0 -18 5 -47 11 -64 9 -24 9 -35 0
-44 -16 -16 -1212 -20 -1258 -4 -28 9 -35 19 -52 71 -30 92 -63 267 -92 476
-4 30 -11 66 -17 80 l-9 25 -21 -35 c-12 -19 -24 -55 -27 -80 -10 -73 -20 -94
-51 -110 -149 -77 -284 -218 -284 -296 0 -41 24 -51 146 -59 104 -8 147 5 201
57 32 31 33 31 47 13 7 -11 18 -46 24 -80 12 -72 63 -185 92 -203 17 -10 302
-13 1448 -12 1349 0 1428 1 1440 17 10 14 13 55 10 169 -3 145 -4 152 -31 193
-15 23 -49 55 -74 72 -39 24 -57 29 -107 29 -87 -1 -135 -14 -250 -70 -129
-64 -147 -75 -158 -94 -21 -37 -27 5 -25 187 1 178 -1 200 -27 304 l-27 111
30 61 c22 43 31 75 31 110 l0 49 -67 22 c-38 13 -72 26 -77 31 -16 15 -26 10
-37 -17z m-2227 -691 c20 -18 27 -120 7 -108 -6 4 -20 -2 -32 -13 -48 -43
-187 -32 -187 15 0 30 80 101 125 112 58 13 66 13 87 -6z m2834 -169 c99 -33
115 -104 34 -158 -21 -14 -58 -16 -263 -16 -216 0 -260 4 -285 26 -12 9 45 45
101 63 37 13 82 33 102 47 20 13 50 24 68 25 18 0 57 7 87 14 77 17 100 17
156 -1z"/>
<path d="M15932 6074 c-20 -13 -23 -23 -20 -66 3 -48 5 -52 41 -71 53 -27 83
-17 97 33 13 49 4 70 -44 99 -40 25 -45 26 -74 5z"/>
<path d="M14505 6069 c-4 -6 -13 -36 -20 -67 -13 -55 -12 -60 14 -122 28 -65
47 -168 87 -480 30 -236 37 -308 31 -324 -5 -14 -26 -16 -134 -16 -154 0 -165
5 -189 88 -22 77 -109 248 -130 256 -29 11 -115 -53 -228 -171 -60 -62 -129
-126 -155 -141 -46 -27 -48 -27 -262 -31 -145 -2 -235 1 -275 9 l-59 12 50 25
c28 14 59 33 69 42 57 49 76 198 33 262 -37 55 -59 51 -136 -30 -65 -68 -104
-132 -157 -259 -11 -27 -27 -48 -42 -53 -27 -10 -96 -12 -141 -3 l-31 7 0 117
c0 119 -12 177 -54 258 -22 43 -41 40 -66 -8 -28 -55 -25 -84 16 -150 43 -69
69 -204 43 -221 -18 -11 -368 -10 -390 1 -13 7 -17 31 -22 117 -8 169 -28 238
-105 363 -25 40 -109 110 -133 110 -17 0 -31 -54 -26 -100 4 -31 12 -50 29
-63 128 -100 174 -172 185 -294 3 -37 12 -81 20 -96 8 -16 12 -32 8 -35 -4 -4
-88 -8 -188 -9 -166 -1 -186 1 -224 20 -24 11 -45 18 -48 15 -16 -15 -8 -130
9 -154 14 -18 34 -19 550 -24 353 -3 539 -9 546 -15 5 -6 14 -46 20 -89 13
-101 36 -152 96 -210 64 -61 117 -86 181 -86 66 0 82 19 107 125 l18 77 -29
41 c-15 23 -40 44 -53 47 -19 4 -29 17 -41 55 -14 46 -14 50 4 68 18 18 34 19
265 16 136 -1 261 2 277 6 17 4 48 21 69 36 51 37 70 36 114 -2 72 -64 68 -63
507 -69 220 -3 434 -3 475 0 l75 5 -1 145 c0 90 -7 175 -17 225 -9 44 -21 127
-27 185 -6 58 -21 146 -32 196 l-21 92 26 50 c53 100 49 172 -11 200 -20 9
-48 27 -62 40 -14 12 -31 22 -38 22 -38 0 -44 -142 -8 -221 17 -39 30 -102 45
-219 12 -91 30 -226 41 -300 10 -74 22 -165 26 -202 l6 -66 -47 -8 c-52 -7
-226 3 -237 14 -4 4 -11 50 -17 102 -9 90 -20 168 -58 395 -28 174 -28 200 2
266 37 84 33 136 -15 165 -19 12 -47 34 -61 48 -29 28 -44 32 -54 15z m-1217
-793 c-3 -42 -12 -85 -20 -98 -23 -35 -93 -68 -145 -68 l-44 0 18 33 c61 111
104 162 156 180 9 4 17 11 17 17 0 5 5 10 11 10 8 0 10 -23 7 -74z m916 -104
c15 -45 25 -90 22 -99 -8 -20 -43 -13 -134 28 -57 25 -73 37 -81 62 -14 39 10
85 58 109 19 9 38 21 43 26 19 19 65 -42 92 -126z m-1085 -282 c77 -24 140
-67 180 -122 38 -51 39 -67 6 -98 l-25 -24 -73 23 c-54 18 -82 34 -114 66 -42
41 -43 44 -43 109 0 36 2 66 4 66 2 0 31 -9 65 -20z"/>
<path d="M19985 6070 c-4 -6 -9 -44 -12 -84 -5 -64 -3 -77 16 -102 23 -32 53
-191 71 -380 5 -56 17 -134 25 -173 23 -112 36 -243 25 -256 -14 -17 -255 -19
-268 -2 -6 7 -13 39 -17 72 -15 129 -46 193 -104 213 -24 9 -38 7 -73 -11 -65
-33 -101 -110 -106 -227 -4 -79 -2 -93 18 -125 24 -39 56 -59 110 -69 50 -10
90 -27 90 -38 0 -37 -182 -228 -250 -263 -19 -9 -43 -25 -54 -34 -15 -13 -43
-16 -172 -15 -98 0 -153 -3 -151 -9 3 -10 70 -36 162 -62 81 -24 200 -19 260
9 93 43 190 169 250 321 l31 80 175 5 174 5 3 110 c3 98 -19 312 -34 336 -3 5
-11 62 -19 126 -7 65 -19 155 -26 200 -13 81 -13 82 14 135 18 36 27 69 27
101 0 44 -3 49 -42 76 -24 17 -55 39 -70 50 -29 23 -44 26 -53 11z m-234 -895
c16 -22 30 -55 31 -74 3 -29 -1 -35 -26 -44 -20 -6 -45 -6 -81 2 -53 12 -53
13 -65 60 -14 58 -1 98 32 103 48 7 80 -7 109 -47z"/>
<path d="M21401 6049 c-21 -60 -15 -83 28 -107 21 -12 47 -22 57 -22 23 0 64
61 64 95 0 32 -51 65 -102 65 -32 0 -37 -4 -47 -31z"/>
<path d="M26356 6071 c-4 -5 -10 -42 -15 -82 -9 -65 -8 -75 10 -97 25 -33 34
-70 58 -242 19 -138 43 -299 61 -420 5 -30 9 -78 9 -106 1 -63 -1 -64 -145
-64 -140 0 -159 8 -174 73 -13 53 -76 190 -112 240 -42 58 -94 29 -273 -154
-66 -67 -135 -128 -153 -136 -55 -23 -157 -29 -185 -10 -22 14 -24 23 -30 134
-8 168 -41 261 -138 386 -25 32 -68 57 -99 57 -18 0 -20 -6 -20 -58 0 -65 8
-79 62 -111 87 -52 136 -148 158 -311 16 -116 23 -112 -207 -108 l-183 4 -30
29 c-26 25 -32 27 -40 15 -16 -25 -15 -112 2 -143 22 -43 60 -47 400 -47 178
0 338 4 356 10 19 5 54 27 78 50 24 22 48 40 52 40 5 0 47 -21 93 -47 l84 -48
290 0 290 0 1 100 c1 105 -6 185 -30 325 -8 47 -22 139 -31 205 -8 66 -21 148
-27 182 -10 61 -10 63 18 100 25 33 29 47 29 102 l0 64 -41 12 c-23 7 -58 24
-77 39 -20 15 -38 23 -41 17z m-327 -839 c41 -81 46 -152 11 -152 -31 0 -124
48 -154 79 -27 28 -27 30 -12 60 19 35 68 64 118 70 4 1 21 -25 37 -57z"/>
<path d="M7031 5983 c-38 -48 -38 -73 0 -105 18 -15 36 -28 40 -28 17 0 69 60
69 80 0 25 -51 80 -74 80 -8 0 -24 -12 -35 -27z"/>
<path d="M20382 5998 c-6 -7 -18 -33 -28 -57 -14 -37 -16 -64 -11 -185 4 -77
13 -178 21 -223 19 -99 40 -398 37 -510 -3 -83 0 -89 33 -77 24 9 61 222 53
304 -4 30 -11 132 -16 225 -6 94 -15 197 -21 230 -21 114 -30 180 -30 227 0
71 -14 95 -38 66z"/>
<path d="M21206 5980 c-17 -21 -26 -43 -26 -66 0 -29 5 -36 40 -54 59 -30 88
-27 105 13 32 76 31 80 -26 107 -29 14 -55 26 -59 28 -4 2 -19 -11 -34 -28z"/>
<path d="M26736 5966 c-23 -39 -26 -55 -26 -138 0 -52 7 -146 15 -209 20 -145
35 -333 42 -526 3 -84 8 -153 12 -153 36 1 71 130 71 264 0 125 -29 446 -55
616 -7 47 -11 88 -8 93 7 11 -8 97 -17 97 -5 0 -20 -20 -34 -44z"/>
<path d="M15711 5974 c-24 -30 -27 -72 -8 -97 15 -20 107 -40 123 -26 6 5 14
24 17 42 3 17 8 39 11 48 5 11 -7 21 -46 37 -67 28 -72 28 -97 -4z"/>
<path d="M6825 5924 c-16 -18 -25 -38 -25 -61 0 -28 5 -36 36 -50 42 -21 61
-12 86 38 23 45 22 56 -4 73 -47 29 -66 29 -93 0z"/>
<path d="M17735 5815 c-21 -20 -26 -33 -23 -68 3 -39 6 -44 51 -67 l48 -25 19
25 c11 14 29 38 41 53 21 27 21 28 3 42 -11 8 -40 26 -66 40 l-48 26 -25 -26z"/>
<path d="M12605 5805 c-34 -33 -32 -70 6 -106 42 -39 77 -38 118 5 40 41 36
65 -17 101 -46 32 -76 32 -107 0z"/>
<path d="M21482 5697 c-14 -16 -31 -91 -32 -137 0 -32 -5 -38 -63 -72 -146
-86 -254 -200 -264 -277 -5 -37 -3 -41 21 -51 33 -12 223 -15 251 -3 11 4 39
21 62 37 23 15 49 26 56 23 9 -3 16 -28 20 -66 8 -88 61 -200 104 -217 26 -11
169 -14 758 -14 721 0 727 0 776 22 l50 21 52 -21 c44 -18 72 -22 167 -22 81
1 122 5 140 15 30 17 98 19 137 4 62 -23 117 -28 141 -12 24 15 24 15 20 186
-4 174 -12 216 -48 244 -22 17 -40 -3 -40 -44 0 -18 11 -60 25 -93 29 -68 32
-122 9 -145 -16 -15 -27 -14 -79 5 -46 18 -95 92 -95 145 0 13 -5 36 -10 51
-19 48 -35 12 -35 -77 0 -78 -1 -81 -33 -110 -28 -25 -40 -29 -93 -29 -103 0
-145 16 -189 72 -24 29 -46 73 -56 108 -9 33 -22 60 -29 60 -16 0 -28 -45 -20
-71 4 -10 1 -44 -5 -74 -20 -97 38 -90 -755 -92 -665 -3 -774 1 -790 27 -8 13
-52 191 -60 240 -3 25 -17 104 -31 175 -13 72 -25 145 -26 164 -3 37 -19 49
-36 28z m6 -279 c17 -17 15 -89 -3 -115 -18 -26 -72 -43 -135 -43 -65 0 -74 8
-55 53 30 73 157 141 193 105z"/>
<path d="M8712 5663 c-28 -71 -24 -90 28 -126 52 -36 97 -10 107 62 6 40 5 41
-38 60 -79 34 -85 34 -97 4z"/>
<path d="M6950 5542 c-44 -37 -89 -126 -97 -192 -11 -98 31 -190 88 -190 15 0
31 -4 34 -10 3 -5 26 -10 50 -10 40 0 46 -3 60 -31 9 -17 15 -32 13 -34 -26
-22 -61 -25 -218 -19 -199 8 -180 -5 -204 143 -22 135 -85 242 -127 215 -14
-8 -39 -68 -39 -93 0 -11 19 -48 43 -83 63 -93 82 -143 81 -209 -3 -144 -126
-304 -312 -406 l-87 -48 -155 -1 c-184 -2 -180 -2 -180 -12 0 -23 265 -102
342 -102 82 0 180 55 299 167 63 60 129 161 129 199 0 31 34 83 59 89 14 4
225 5 469 4 424 -2 445 -2 458 16 10 13 14 51 14 125 0 190 -27 338 -72 395
l-20 25 -29 -36 c-35 -45 -36 -77 -4 -129 45 -74 58 -110 63 -174 3 -47 1 -66
-9 -72 -16 -10 -328 -10 -374 0 l-30 6 -6 155 c-6 158 -14 199 -57 268 -26 45
-52 61 -104 68 -37 5 -48 2 -78 -24z m99 -146 c13 -6 35 -32 48 -58 20 -38 23
-53 15 -75 -8 -26 -13 -28 -55 -26 -80 2 -127 45 -127 114 0 53 16 71 58 63
20 -3 48 -11 61 -18z"/>
<path d="M10644 5455 c-28 -43 -26 -133 3 -162 23 -23 40 -74 53 -153 15 -86
82 -79 -736 -80 -486 0 -731 3 -744 10 -17 9 -20 22 -20 81 0 72 -36 199 -64
228 -12 11 -16 10 -29 -10 -8 -13 -21 -49 -27 -80 -12 -55 -12 -59 19 -123 41
-87 61 -232 42 -297 -25 -84 -149 -171 -288 -203 -92 -21 -243 -21 -314 0 -63
18 -122 69 -149 128 -15 32 -17 56 -13 140 3 56 11 110 18 122 11 17 45 118
45 133 0 2 -11 -6 -24 -18 -13 -12 -29 -43 -35 -68 -7 -25 -19 -55 -27 -68
-20 -30 -43 -161 -44 -242 0 -113 56 -211 147 -257 41 -20 189 -46 267 -46
128 1 310 57 363 113 41 43 90 140 103 208 6 30 16 67 22 82 l11 28 876 -1
c776 -2 881 0 920 14 55 20 87 20 142 0 68 -25 237 -21 293 5 52 26 62 26 117
2 24 -10 63 -21 87 -24 66 -8 75 6 71 123 -3 73 0 101 10 114 12 14 12 30 3
93 -16 100 -55 144 -82 94 -16 -30 -12 -51 20 -116 37 -75 39 -119 5 -141 -61
-40 -143 29 -168 141 -17 73 -21 80 -36 70 -6 -3 -11 -40 -11 -86 0 -44 -5
-89 -11 -101 -16 -29 -70 -48 -139 -48 -107 0 -161 39 -206 150 -43 106 -64
104 -64 -5 0 -66 -3 -76 -28 -103 -21 -22 -42 -32 -76 -37 -48 -8 -182 -2
-192 7 -2 3 0 26 6 52 18 81 -22 271 -70 327 l-27 33 -19 -29z"/>
<path d="M2360 5424 c-63 -28 -101 -75 -103 -126 -2 -33 -2 -33 38 -29 22 1
43 8 46 13 4 6 50 13 103 16 93 5 96 4 96 -16 0 -24 -30 -56 -144 -152 -124
-105 -175 -210 -184 -381 -9 -185 24 -284 132 -387 47 -45 76 -64 126 -81 91
-31 218 -51 330 -51 92 0 98 1 150 34 145 91 144 120 -5 115 -27 -1 -97 2
-155 6 -245 18 -453 119 -510 249 -66 147 2 331 163 444 34 24 76 49 92 57 55
25 214 85 227 85 7 0 40 9 73 19 33 10 85 21 115 25 40 5 59 13 68 27 19 29
27 115 13 123 -7 4 -76 9 -154 11 -78 2 -160 8 -182 14 -22 6 -94 11 -160 11
-107 0 -126 -3 -175 -26z"/>
<path d="M24632 5407 c-12 -13 -27 -38 -32 -55 -8 -29 -3 -41 45 -118 30 -47
59 -101 66 -121 17 -52 7 -149 -22 -213 -48 -104 -173 -226 -299 -291 l-65
-34 -168 1 c-147 2 -168 0 -165 -14 4 -19 100 -55 224 -84 83 -19 103 -20 151
-10 86 18 152 54 229 126 134 123 183 234 184 413 0 183 -31 314 -93 386 l-32
39 -23 -25z"/>
<path d="M2676 4911 c-10 -10 -18 -38 -19 -62 -2 -43 -1 -44 52 -73 l54 -29
24 27 c47 55 43 114 -11 140 -45 21 -79 20 -100 -3z"/>
<path d="M10587 4731 c-23 -57 -22 -62 23 -98 61 -51 100 -43 120 27 17 60
-10 93 -87 106 -39 6 -40 5 -56 -35z"/>
<path d="M17329 4739 c-12 -17 -23 -44 -25 -59 -3 -23 2 -30 28 -41 18 -7 40
-21 50 -31 10 -10 22 -18 26 -18 20 0 54 51 59 87 5 35 2 42 -27 66 -44 37
-82 36 -111 -4z"/>
<path d="M7421 4709 c-20 -22 -32 -64 -24 -85 8 -22 74 -55 102 -52 35 4 68
67 51 98 -10 19 -78 60 -99 60 -6 0 -19 -9 -30 -21z"/>
<path d="M10396 4677 c-21 -15 -32 -87 -18 -114 12 -22 83 -49 106 -40 22 9
43 46 51 91 5 32 4 38 -9 33 -8 -3 -25 2 -38 12 -33 25 -72 33 -92 18z"/>
<path d="M17120 4658 c-29 -48 -26 -81 11 -112 33 -28 74 -33 100 -13 14 11
59 95 59 111 0 4 -9 5 -20 1 -12 -4 -36 3 -63 19 -56 33 -63 33 -87 -6z"/>
<path d="M2230 3943 c-25 -10 -30 -25 -30 -89 0 -40 5 -66 14 -73 10 -8 3215
-11 12401 -11 6814 0 12391 3 12394 6 9 8 7 136 -1 156 -7 17 -606 18 -12385
17 -6808 0 -12385 -3 -12393 -6z"/>
<path d="M4433 3069 c-59 -17 -58 -11 -56 -519 2 -256 5 -477 9 -492 5 -27 7
-28 79 -28 57 0 74 3 79 16 3 9 6 234 6 500 l0 485 -26 24 c-29 27 -41 28 -91
14z"/>
<path d="M15435 3071 c-27 -12 -47 -36 -85 -106 -18 -33 -38 -68 -44 -78 -15
-24 7 -37 65 -37 46 0 48 2 101 68 90 113 105 144 72 156 -22 8 -85 6 -109 -3z"/>
<path d="M10679 3051 l-24 -19 -3 -474 c-2 -308 1 -483 7 -501 10 -26 13 -27
85 -27 57 0 75 3 80 15 3 9 6 234 6 500 l0 484 -26 20 c-34 27 -94 28 -125 2z"/>
<path d="M12499 3051 c-23 -19 -24 -25 -29 -194 -3 -97 -8 -179 -12 -182 -4
-4 -22 5 -40 20 -54 46 -92 57 -167 50 -69 -7 -96 -20 -144 -64 -66 -60 -102
-196 -94 -349 6 -128 26 -189 80 -242 66 -65 88 -73 184 -67 91 5 112 15 168
75 l34 37 1 -27 c0 -15 5 -39 12 -53 10 -22 17 -25 68 -25 31 0 61 5 68 12 9
9 12 133 12 495 l0 484 -25 24 c-30 31 -83 33 -116 6z m-65 -519 l36 -44 0
-102 c0 -95 -2 -105 -29 -148 -22 -35 -40 -50 -76 -64 -43 -16 -51 -16 -88 -3
-52 18 -71 51 -93 156 -16 80 -16 84 6 154 25 83 55 116 108 121 49 4 92 -18
136 -70z"/>
<path d="M12861 3040 c-11 -19 -20 -60 -24 -111 -5 -61 -15 -101 -42 -163 -40
-94 -43 -112 -15 -121 38 -12 78 5 115 51 56 68 123 206 131 271 6 53 5 58
-20 80 -21 17 -39 23 -77 23 -44 0 -51 -3 -68 -30z"/>
<path d="M20340 3052 c-24 -19 -25 -23 -27 -182 -2 -89 -7 -168 -11 -176 -7
-12 -17 -8 -53 18 -42 31 -48 33 -124 31 -44 -1 -96 -9 -116 -17 -78 -33 -128
-126 -149 -277 -12 -84 -10 -119 12 -239 11 -57 19 -71 63 -117 55 -56 96 -73
183 -73 65 0 105 17 160 68 34 33 42 36 42 20 0 -27 26 -74 45 -82 20 -7 104
4 111 15 2 5 4 228 4 496 0 459 -1 489 -19 506 -28 29 -91 33 -121 9z m-132
-462 c20 -10 52 -37 70 -59 31 -39 32 -42 33 -143 0 -57 -4 -115 -9 -129 -6
-14 -30 -42 -53 -63 -87 -74 -185 -34 -214 89 -28 119 -13 220 43 278 47 50
76 56 130 27z"/>
<path d="M24301 3057 c-14 -6 -28 -25 -33 -42 -11 -42 -8 -946 3 -967 13 -25
154 -27 163 -2 3 9 6 111 6 228 0 205 1 214 23 247 25 37 90 79 124 79 36 0
68 -19 89 -53 17 -29 19 -55 21 -262 2 -268 -2 -258 103 -253 l65 3 3 230 c3
293 -8 359 -71 423 -51 52 -94 65 -183 56 -54 -6 -75 -13 -112 -41 -35 -27
-47 -32 -53 -21 -5 7 -9 86 -9 176 0 160 -1 163 -25 187 -27 28 -74 33 -114
12z"/>
<path d="M8018 3032 c-19 -2 -29 -12 -37 -34 -16 -44 -14 -104 4 -122 18 -18
94 -31 125 -21 25 8 50 60 50 104 0 61 -47 85 -142 73z"/>
<path d="M16628 3021 c-16 -13 -22 -32 -25 -72 -2 -30 0 -60 6 -68 5 -8 37
-18 72 -23 79 -11 89 -2 96 84 4 52 2 66 -12 78 -25 21 -111 22 -137 1z"/>
<path d="M22040 2996 c-71 -17 -85 -23 -146 -61 -145 -92 -209 -293 -178 -559
19 -167 60 -241 167 -300 148 -83 415 -70 470 23 18 30 25 141 8 141 -4 0 -38
-16 -75 -35 -148 -77 -295 -30 -361 116 -25 56 -27 72 -27 173 1 172 28 241
125 320 30 23 49 31 96 34 49 4 71 -1 144 -31 103 -42 112 -38 105 49 -6 68
-21 85 -109 113 -86 28 -151 33 -219 17z"/>
<path d="M2530 2990 c-148 -3 -222 -9 -237 -18 l-23 -13 -2 -387 c-3 -489 -3
-502 21 -526 22 -21 15 -21 304 -18 l217 2 0 65 c0 78 11 74 -192 77 -81 2
-151 7 -157 13 -11 11 -20 250 -9 260 3 4 69 9 145 12 152 6 163 10 163 69 0
17 -8 41 -17 53 -16 19 -30 21 -153 23 l-135 3 -3 109 c-1 63 2 114 7 119 6 6
83 13 173 16 l163 6 3 58 c3 62 -8 88 -37 85 -9 -1 -113 -5 -231 -8z"/>
<path d="M5841 2991 c-13 -3 -33 -19 -45 -34 -19 -26 -20 -43 -24 -456 -3
-307 -1 -435 7 -450 10 -18 21 -21 81 -21 60 0 70 3 71 18 1 9 0 147 -1 306
-1 292 5 416 21 416 5 0 9 -6 9 -13 0 -8 20 -54 45 -103 25 -48 45 -92 45 -97
0 -15 219 -451 237 -473 37 -42 67 -54 141 -56 52 -1 77 3 87 13 12 12 15 88
16 467 1 427 0 454 -17 474 -15 16 -27 19 -57 15 -64 -9 -87 -30 -87 -82 0
-24 5 -56 11 -72 7 -17 13 -115 15 -244 3 -192 1 -220 -15 -251 -16 -33 -18
-34 -27 -14 -5 11 -20 23 -34 26 -18 4 -26 15 -31 38 -4 18 -14 41 -22 50 -9
10 -19 38 -23 62 -4 25 -52 136 -106 247 -86 175 -103 203 -131 216 -38 18
-132 28 -166 18z"/>
<path d="M13270 2992 c-27 -2 -50 -9 -57 -19 -17 -22 -19 -894 -3 -924 9 -16
22 -19 85 -19 40 0 76 4 79 9 8 12 9 913 1 932 -7 19 -39 25 -105 21z"/>
<path d="M7527 2912 c-13 -14 -17 -38 -17 -90 l0 -71 -37 -7 c-64 -11 -73 -20
-73 -71 0 -49 17 -72 56 -73 45 0 49 -20 54 -256 l5 -222 31 -39 c39 -48 78
-62 176 -62 72 -1 78 1 98 26 15 20 20 38 18 67 l-3 41 -59 5 c-76 7 -92 26
-101 123 -9 100 -3 284 11 297 6 6 38 14 70 17 32 3 65 10 72 16 18 14 16 102
-3 117 -8 7 -47 15 -85 18 l-70 5 0 73 c0 64 -3 75 -22 88 -31 22 -101 21
-121 -2z"/>
<path d="M23828 2923 c-22 -6 -38 -61 -31 -111 6 -46 -14 -72 -56 -72 -39 0
-48 -16 -46 -80 l1 -55 38 -6 c20 -3 41 -10 45 -15 5 -5 13 -111 18 -235 l9
-226 28 -38 c38 -49 79 -65 171 -65 67 0 79 3 100 25 27 26 34 82 13 103 -7 7
-32 12 -55 12 -61 0 -89 30 -98 101 -6 57 0 317 8 325 3 3 31 8 63 11 83 8 94
16 94 64 0 68 -11 79 -84 79 -73 0 -92 14 -83 58 8 39 -8 104 -29 119 -17 13
-71 16 -106 6z"/>
<path d="M18793 2749 c-27 -8 -33 -15 -33 -37 -1 -46 -76 -112 -129 -112 -40
0 -68 38 -51 70 10 18 8 26 -11 46 -13 14 -32 24 -44 22 -18 -3 -21 -13 -26
-108 -4 -58 -6 -209 -5 -337 1 -266 -1 -257 87 -268 89 -11 89 -11 88 225 0
223 5 245 66 299 34 29 43 33 79 28 23 -3 47 -3 54 2 22 13 29 64 18 121 -10
48 -14 55 -36 57 -14 1 -40 -3 -57 -8z"/>
<path d="M23540 2745 c-28 -8 -62 -29 -90 -55 l-44 -43 -9 34 c-12 48 -29 62
-76 62 -74 0 -72 15 -69 -367 l3 -341 76 -3 c66 -2 78 0 84 15 4 10 7 92 6
183 -2 195 7 250 53 304 30 36 36 39 80 38 26 -1 60 5 76 13 28 15 30 19 30
75 0 48 -4 63 -22 80 -24 22 -34 23 -98 5z"/>
<path d="M3193 2741 c-108 -18 -186 -111 -219 -263 -18 -86 -13 -169 17 -273
17 -57 30 -78 69 -116 54 -53 105 -69 213 -69 85 0 135 16 175 56 30 30 33 38
30 81 -3 43 -5 48 -29 51 -16 2 -42 -7 -64 -22 -30 -21 -50 -26 -96 -26 -50 0
-63 4 -89 28 -35 32 -70 123 -70 183 0 44 24 137 47 182 16 33 67 57 117 57
19 0 63 -13 97 -30 71 -33 79 -30 79 33 0 51 -23 93 -63 113 -37 20 -139 26
-214 15z"/>
<path d="M3805 2741 c-81 -20 -157 -78 -189 -144 -95 -195 -49 -461 93 -545
43 -26 53 -27 171 -27 105 0 132 4 170 21 126 58 186 189 178 389 -3 91 -6
105 -36 157 -48 83 -108 132 -178 147 -63 12 -162 13 -209 2z m176 -148 c37
-22 58 -67 71 -151 18 -116 -11 -231 -67 -268 -39 -26 -136 -25 -172 2 -52 38
-68 87 -68 204 1 116 18 167 71 209 34 27 122 29 165 4z"/>
<path d="M4938 2736 c-108 -30 -171 -106 -207 -251 -17 -67 -18 -89 -10 -168
21 -189 88 -265 254 -292 74 -12 101 -12 187 0 56 8 106 19 112 25 5 5 15 30
22 55 17 67 7 71 -124 52 -158 -22 -216 -7 -262 69 -19 30 -21 42 -14 73 l9
36 202 5 c111 3 205 9 210 13 4 5 8 50 8 101 0 83 -3 98 -30 151 -23 43 -44
67 -85 96 -50 34 -62 38 -140 43 -55 3 -101 1 -132 -8z m170 -126 c50 -31 80
-118 50 -148 -8 -8 -50 -12 -123 -12 -130 0 -152 9 -142 58 20 102 130 153
215 102z"/>
<path d="M6867 2739 c-60 -12 -125 -54 -133 -86 -4 -13 -3 -39 0 -59 7 -34 9
-35 39 -28 17 3 51 15 76 26 59 25 149 34 194 19 30 -10 38 -19 47 -49 13 -50
13 -87 -2 -100 -7 -5 -51 -13 -98 -17 -159 -14 -250 -62 -275 -147 -22 -74
-19 -117 13 -178 43 -85 64 -95 191 -95 111 0 105 -2 178 50 10 7 17 5 24 -8
22 -39 110 -62 137 -35 9 9 12 82 12 267 0 290 -8 340 -67 391 -61 54 -202 74
-336 49z m217 -415 c22 -21 20 -82 -4 -121 -24 -39 -57 -62 -101 -69 -29 -5
-41 0 -76 31 -24 20 -43 43 -43 52 0 27 32 83 54 95 54 29 147 36 170 12z"/>
<path d="M8020 2743 c-14 -2 -29 -9 -35 -14 -12 -12 -16 -644 -4 -676 8 -21
15 -23 83 -23 55 0 75 4 79 14 3 8 7 161 8 341 1 266 -1 329 -12 340 -16 16
-81 26 -119 18z"/>
<path d="M8573 2740 c-75 -11 -113 -29 -167 -84 -36 -35 -46 -56 -64 -122 -37
-135 -28 -293 21 -377 14 -24 46 -62 70 -84 40 -37 51 -42 113 -48 83 -9 225
0 256 16 51 26 110 84 133 130 77 151 58 392 -38 497 -58 63 -186 91 -324 72z
m153 -140 c64 -40 96 -160 79 -296 -6 -51 -13 -64 -50 -101 -41 -42 -44 -43
-108 -43 -55 0 -70 4 -95 25 -43 36 -63 95 -64 184 -2 166 55 242 186 250 10
1 33 -8 52 -19z"/>
<path d="M9465 2742 c-52 -8 -67 -14 -97 -40 -18 -15 -45 -33 -59 -39 -26 -11
-27 -10 -38 33 -11 44 -11 44 -57 44 -90 0 -84 23 -84 -350 0 -180 3 -335 6
-344 5 -13 22 -16 80 -16 51 0 76 4 79 13 2 6 5 109 7 227 4 238 4 238 73 294
43 33 107 45 132 25 9 -8 25 -34 36 -59 19 -41 20 -63 18 -252 -1 -134 2 -215
9 -228 9 -17 21 -20 85 -20 41 0 75 3 75 8 9 202 6 459 -6 521 -28 151 -109
208 -259 183z"/>
<path d="M10047 2740 c-54 -14 -115 -47 -127 -69 -16 -30 -12 -76 8 -94 25
-23 36 -21 88 9 33 20 63 27 122 31 73 5 80 4 107 -19 25 -22 29 -33 30 -79 0
-47 -3 -55 -25 -66 -14 -7 -55 -13 -92 -13 -128 0 -233 -61 -262 -153 -26 -78
-21 -120 20 -179 46 -68 64 -79 134 -85 100 -9 166 4 203 41 l32 31 28 -32
c26 -30 35 -33 83 -33 l54 0 1 53 c3 151 -3 495 -8 517 -12 47 -55 99 -100
121 -35 17 -67 22 -151 25 -59 2 -124 -1 -145 -6z m233 -416 c29 -75 -9 -164
-78 -183 -60 -17 -97 -13 -126 14 -22 20 -26 32 -26 79 0 33 5 58 12 63 42 27
119 52 161 53 42 0 49 -3 57 -26z"/>
<path d="M11229 2740 c-61 -11 -100 -32 -138 -75 -78 -89 -111 -219 -92 -356
21 -143 67 -218 161 -263 40 -19 61 -21 185 -20 92 1 154 6 180 15 36 13 40
17 43 53 5 63 -5 89 -31 82 -12 -4 -59 -14 -104 -23 -72 -14 -90 -15 -139 -3
-31 8 -67 22 -80 32 -25 20 -44 73 -44 126 0 26 4 32 23 32 12 1 101 2 198 3
161 2 179 4 199 22 20 18 22 27 17 95 -9 124 -67 223 -153 261 -48 22 -160 31
-225 19z m160 -136 c20 -16 36 -44 46 -77 21 -72 13 -77 -136 -77 -141 0 -151
6 -125 75 10 24 30 58 46 75 25 26 35 30 83 30 45 0 61 -5 86 -26z"/>
<path d="M13633 2738 c-13 -6 -23 -16 -24 -22 -4 -72 1 -668 6 -676 3 -5 39
-10 79 -10 68 0 74 2 80 23 3 12 6 116 6 230 l0 208 48 50 c37 40 56 51 88 56
53 7 77 -7 103 -60 19 -40 21 -61 21 -263 0 -120 4 -226 10 -234 6 -10 27 -14
68 -15 98 0 94 -14 90 299 l-3 271 -27 45 c-40 69 -67 89 -134 100 -89 15
-178 -3 -205 -41 -11 -16 -25 -29 -31 -29 -6 0 -19 -7 -28 -15 -16 -14 -18
-12 -30 30 -7 25 -16 47 -19 49 -18 12 -79 14 -98 4z"/>
<path d="M14536 2735 c-49 -10 -66 -19 -102 -57 -55 -59 -73 -131 -54 -228 7
-36 16 -71 20 -79 5 -8 -4 -42 -21 -82 -35 -81 -35 -94 -7 -139 24 -39 24 -63
-1 -100 -62 -90 -53 -205 20 -249 68 -42 232 -58 349 -35 168 33 254 173 188
304 -31 60 -77 90 -140 90 -89 0 -242 22 -260 38 -11 9 -18 29 -18 49 l0 33
68 -1 c207 -5 303 72 306 248 1 59 3 68 21 71 37 7 55 33 55 78 0 31 -5 46
-17 52 -31 16 -341 21 -407 7z m169 -135 c14 -13 30 -40 36 -60 10 -31 8 -43
-10 -78 -23 -45 -38 -56 -89 -65 -65 -13 -132 38 -132 100 0 48 20 102 43 118
33 24 120 15 152 -15z m30 -564 c52 -22 63 -55 35 -101 -28 -45 -66 -65 -127
-65 -55 1 -121 14 -135 28 -5 5 -12 28 -15 51 -5 36 -2 46 22 72 27 27 33 29
107 29 46 0 93 -6 113 -14z"/>
<path d="M15300 2743 c-14 -2 -35 -6 -47 -8 -25 -6 -123 -81 -123 -95 0 -6
-11 -27 -24 -48 -41 -63 -58 -172 -46 -283 19 -172 83 -254 215 -279 74 -14
284 -7 316 11 26 13 51 65 47 97 -2 22 -9 28 -36 30 -18 2 -65 -4 -103 -13
-153 -34 -269 25 -269 137 0 34 3 38 33 42 17 3 112 7 209 8 97 2 180 7 184
11 14 14 17 127 4 175 -30 109 -106 193 -192 211 -48 11 -117 12 -168 4z m153
-135 c33 -24 43 -41 51 -93 10 -66 5 -68 -146 -66 -73 1 -137 6 -142 11 -13
13 21 96 53 133 43 47 127 54 184 15z"/>
<path d="M15854 2740 c-12 -5 -25 -13 -28 -18 -11 -18 -7 -651 4 -672 12 -22
81 -36 128 -25 l31 6 3 223 c3 217 4 223 28 258 53 78 146 111 187 66 37 -41
38 -51 43 -291 4 -197 8 -239 20 -247 22 -14 136 -12 147 3 15 19 10 491 -7
552 -15 58 -50 109 -88 129 -58 29 -201 31 -202 3 -1 -7 -16 -29 -34 -50 -33
-37 -36 -38 -93 -35 l-58 3 -5 40 c-9 65 -24 76 -76 55z"/>
<path d="M16669 2742 l-56 -3 -6 -172 c-11 -284 -9 -501 6 -520 7 -10 35 -18
73 -23 96 -10 93 -23 93 367 1 337 1 339 -39 350 -8 2 -40 3 -71 1z"/>
<path d="M17183 2741 c-67 -11 -115 -41 -164 -103 -53 -68 -63 -110 -64 -268
0 -133 0 -136 33 -203 28 -55 44 -75 88 -104 51 -34 58 -36 161 -40 123 -6
237 8 264 33 20 18 36 101 22 115 -6 6 -45 1 -103 -11 -107 -23 -130 -24 -185
-9 -58 16 -102 65 -110 123 -4 26 -4 50 0 54 3 4 94 9 200 12 242 6 240 6 231
123 -16 212 -151 313 -373 278z m163 -143 c18 -17 37 -49 44 -75 11 -39 11
-46 -4 -61 -14 -14 -34 -16 -129 -14 -138 4 -153 13 -131 74 20 57 50 91 92
104 51 16 91 7 128 -28z"/>
<path d="M18195 2740 l-40 -5 -5 -227 c-5 -209 -7 -229 -26 -254 -34 -46 -88
-84 -127 -91 -33 -5 -41 -2 -71 30 -18 19 -36 50 -40 67 -3 18 -6 129 -6 246
0 201 -1 214 -19 224 -27 14 -124 13 -139 -2 -9 -9 -12 -78 -12 -250 0 -215 2
-244 21 -302 30 -92 81 -141 154 -151 30 -3 79 -3 109 0 44 6 60 14 87 41 44
45 74 45 89 -1 13 -40 30 -47 90 -37 l45 8 3 347 2 347 -27 6 c-16 3 -32 7
-38 8 -5 1 -28 -1 -50 -4z"/>
<path d="M19127 2743 c-43 -7 -115 -88 -133 -151 -20 -69 -12 -115 32 -175 29
-39 50 -55 130 -92 52 -25 102 -45 109 -45 20 0 31 -26 39 -91 l7 -56 -52 -7
c-32 -4 -56 -3 -62 3 -6 6 -23 11 -37 11 -15 0 -53 9 -85 20 -73 25 -92 25
-105 0 -15 -28 7 -98 36 -117 33 -21 198 -29 276 -13 81 17 99 30 132 89 37
68 37 170 1 223 -31 45 -97 92 -150 107 -60 16 -103 47 -122 86 -17 35 -17 35
12 65 24 25 37 30 76 30 26 0 73 -10 104 -22 48 -18 58 -19 66 -7 12 17 6 106
-9 121 -22 22 -174 34 -265 21z"/>
<path d="M20857 2736 c-100 -28 -175 -106 -202 -211 -20 -77 -20 -236 0 -303
19 -62 66 -126 122 -165 38 -27 48 -29 164 -34 205 -9 261 11 276 101 8 49 -8
53 -133 32 -95 -16 -108 -16 -157 -2 -59 17 -79 34 -102 89 -19 45 -19 86 -1
93 7 3 97 6 199 7 233 3 232 2 224 122 -7 121 -65 218 -154 257 -55 24 -175
32 -236 14z m174 -131 c30 -21 40 -37 49 -77 19 -77 8 -84 -137 -80 -65 2
-121 6 -125 8 -15 10 -8 55 18 105 41 83 115 99 195 44z"/>
<path d="M22650 2741 c-39 -8 -96 -35 -122 -59 -23 -20 -25 -110 -3 -118 7 -3
42 5 77 19 128 51 245 43 268 -18 18 -46 12 -82 -16 -104 -22 -17 -41 -21
-103 -21 -68 0 -84 -4 -150 -38 -92 -46 -114 -81 -119 -187 -2 -63 0 -74 25
-109 52 -72 72 -81 186 -81 91 0 107 3 148 26 l46 26 21 -22 c24 -25 109 -40
129 -23 17 14 16 485 -1 562 -26 108 -108 157 -264 155 -48 -1 -103 -4 -122
-8z m214 -413 c9 -13 16 -43 16 -70 0 -41 -5 -52 -35 -82 -74 -75 -183 -53
-201 40 -9 51 18 83 92 111 77 29 109 29 128 1z"/>
<path d="M25182 2739 c-57 -11 -119 -47 -126 -73 -11 -42 -6 -96 9 -103 9 -3
43 7 76 22 40 17 85 28 132 32 63 5 75 3 99 -16 30 -24 53 -90 44 -127 -7 -27
-49 -39 -110 -30 -55 9 -163 -26 -220 -69 -45 -34 -64 -82 -65 -169 -1 -65 39
-137 94 -167 64 -37 212 -24 278 23 l28 20 27 -25 c32 -31 91 -44 122 -27 22
12 22 12 18 288 -3 247 -5 281 -22 311 -27 51 -75 90 -130 106 -53 16 -184 18
-254 4z m241 -410 c6 -9 7 -39 2 -74 -8 -67 -31 -94 -101 -121 -51 -19 -84
-14 -119 22 -20 20 -25 34 -25 78 0 52 2 55 38 77 48 29 85 38 146 36 32 -1
52 -7 59 -18z"/>
<path d="M25942 2740 c-87 -13 -147 -79 -173 -190 -6 -25 -2 -59 13 -121 20
-83 21 -88 4 -122 -9 -20 -21 -39 -26 -42 -18 -11 -10 -85 14 -135 l25 -51
-28 -32 c-40 -45 -51 -70 -51 -112 0 -103 71 -157 244 -185 51 -8 167 9 207
30 10 6 26 10 35 10 31 0 93 51 114 94 28 58 27 146 -1 196 -12 21 -39 48 -62
61 -36 20 -57 23 -186 26 -167 4 -171 6 -171 84 0 59 19 68 90 43 45 -16 52
-16 114 -1 83 20 110 39 144 96 22 38 27 58 27 117 0 70 1 71 43 111 45 43 52
69 25 101 -16 18 -34 20 -183 25 -91 2 -189 1 -218 -3z m124 -127 c23 -10 47
-26 53 -36 19 -29 16 -102 -6 -139 -18 -31 -23 -33 -77 -36 -49 -3 -62 1 -82
19 -52 48 -55 140 -7 185 31 28 63 30 119 7z m80 -586 c19 -17 27 -33 26 -55
-2 -68 -47 -102 -134 -102 -118 0 -168 38 -147 113 15 55 40 67 141 67 77 0
90 -3 114 -23z"/>
<path d="M26660 2737 c-102 -29 -169 -118 -196 -260 -23 -116 -14 -232 23
-305 66 -130 181 -172 408 -148 68 8 83 13 108 37 23 23 28 36 25 66 l-3 38
-45 -1 c-25 -1 -92 -5 -150 -9 -95 -6 -108 -5 -137 14 -41 26 -67 75 -65 125
1 22 4 42 7 45 3 2 94 5 203 5 108 1 203 5 211 10 10 7 12 30 9 102 -4 76 -10
103 -34 149 -28 57 -79 106 -128 125 -46 17 -186 21 -236 7z m185 -140 c35
-35 62 -104 52 -131 -5 -13 -26 -16 -122 -16 -160 0 -177 12 -134 95 32 62 65
85 123 85 41 0 53 -5 81 -33z"/>
</g>
</svg>
